<svg xmlns="http://www.w3.org/2000/svg" width="577" height="522" viewBox="0 0 577 522" version="1.1"><path d="M 296.815 34.037 C 294.788 35.106, 292.849 36.436, 292.506 36.991 C 292.163 37.546, 290.838 38, 289.563 38 C 288.288 38, 285.674 38.656, 283.755 39.458 C 281.643 40.340, 279.128 40.650, 277.383 40.242 C 271.819 38.942, 264.745 39.905, 249.741 44.005 C 214.740 53.571, 183.058 68.438, 163.194 84.620 C 155.085 91.225, 158.025 89.885, 169.294 81.839 C 181.012 73.473, 202.677 62.062, 219 55.659 C 242.781 46.330, 273.045 39.132, 276.484 41.987 C 278.133 43.355, 283.411 42.502, 286.473 40.372 C 287.557 39.618, 289.960 39, 291.812 39 C 294.055 39, 295.763 38.279, 296.926 36.843 C 298.899 34.407, 303.887 34.066, 307.701 36.108 C 309.490 37.065, 310 38.194, 310 41.200 C 310 44.316, 310.637 45.620, 313.298 47.957 C 315.113 49.550, 321.750 57.200, 328.048 64.958 C 334.347 72.715, 340.459 79.309, 341.630 79.610 C 342.802 79.911, 349.102 78.783, 355.630 77.105 C 362.159 75.426, 373.575 72.638, 381 70.910 C 388.425 69.182, 394.950 67.319, 395.500 66.771 C 396.165 66.109, 395.830 65.969, 394.500 66.354 C 393.400 66.672, 386.060 68.289, 378.188 69.946 C 370.317 71.603, 361.573 73.643, 358.757 74.480 C 352.495 76.339, 352.134 76.354, 354.457 74.655 C 356.202 73.379, 356.174 73.272, 353.898 72.553 C 352.579 72.136, 350.937 71.655, 350.248 71.485 C 343.558 69.834, 329.497 58.750, 327.669 53.687 C 327.309 52.689, 326.621 52.116, 326.141 52.413 C 324.745 53.276, 321.641 49.220, 319.828 44.163 C 318.575 40.670, 318.136 40.120, 318.078 41.973 L 318 44.445 316.258 41.973 C 315.300 40.613, 314.625 39.163, 314.758 38.750 C 314.891 38.337, 314.585 38, 314.077 38 C 313.569 38, 311.881 36.940, 310.327 35.644 C 306.249 32.246, 301.319 31.659, 296.815 34.037 M 361.571 33.571 C 359.715 35.428, 359.744 35.195, 360.975 38.435 C 361.715 40.379, 362.656 41, 364.868 41 C 367.682 41, 369 39.561, 369 36.490 C 369 34.747, 366.246 32, 364.500 32 C 363.754 32, 362.436 32.707, 361.571 33.571 M 363.109 33.933 C 362.403 34.369, 361.977 35.800, 362.163 37.113 C 362.625 40.382, 367.350 40.553, 367.811 37.318 C 368.162 34.847, 365.144 32.675, 363.109 33.933 M 273 45.073 C 271.625 45.546, 262.850 47.962, 253.500 50.442 C 244.150 52.922, 232.675 56.261, 228 57.861 C 215.728 62.063, 196.675 70.946, 185.861 77.508 C 174.920 84.146, 161.592 93.926, 162.394 94.728 C 162.701 95.034, 163.702 94.662, 164.620 93.900 C 166.109 92.664, 166.214 92.750, 165.594 94.703 C 164.981 96.635, 165.344 96.961, 168.700 97.494 C 179.430 99.199, 200.305 103.515, 214.864 107.039 C 223.864 109.218, 232.011 111, 232.969 111 C 234.074 111, 235.055 109.812, 235.653 107.750 C 236.433 105.061, 237.020 104.560, 239.048 104.848 C 240.397 105.039, 242.006 105.610, 242.625 106.116 C 243.938 107.191, 251.229 99.640, 261.670 86.393 C 265.427 81.627, 272.295 73.176, 276.934 67.614 C 286.652 55.960, 294 46.176, 294 44.890 C 294 42.971, 289.661 44.145, 287.130 46.750 C 281.154 52.898, 277.952 54.517, 272.500 54.145 C 265.632 53.677, 250.953 53.767, 248 54.295 C 244.610 54.902, 244.626 54.879, 248.500 53.562 C 250.700 52.814, 253.512 52.431, 254.750 52.710 C 255.996 52.990, 257 52.740, 257 52.149 C 257 51.054, 268.797 47, 271.983 47 C 272.958 47, 274.315 46.325, 275 45.500 C 275.685 44.675, 276.077 44.048, 275.872 44.106 C 275.668 44.165, 274.375 44.600, 273 45.073 M 299.845 48.707 C 298.073 48.979, 296.277 50.509, 294.444 53.307 C 292.934 55.613, 288.279 61.710, 284.099 66.856 C 272.261 81.430, 251.139 108.473, 251.395 108.728 C 251.521 108.854, 254.747 107.798, 258.562 106.381 C 273.609 100.792, 304.241 90.748, 318 86.893 C 325.975 84.658, 333.100 82.642, 333.834 82.414 C 334.710 82.141, 333.314 79.854, 329.764 75.749 C 326.792 72.312, 321.916 66.110, 318.930 61.967 C 315.943 57.824, 313.139 54.363, 312.699 54.276 C 312.258 54.188, 310.330 52.741, 308.414 51.058 C 306.498 49.376, 304.384 48.067, 303.715 48.150 C 303.047 48.232, 301.305 48.483, 299.845 48.707 M 405.581 59.131 C 405.876 59.609, 406.894 60, 407.843 60 C 409.717 60, 412.348 63.903, 413.370 68.196 C 413.745 69.774, 416.562 73.090, 420.166 76.196 C 444.474 97.143, 453.871 106.222, 465.341 119.839 C 471.778 127.481, 472.607 128.129, 475.267 127.597 C 479.052 126.840, 484 131.431, 484 135.701 C 484 141.953, 479.227 144.558, 472.475 141.991 C 470.176 141.116, 469.463 141.358, 467.160 143.794 C 464.702 146.393, 456.970 151.689, 436.500 164.798 C 432.100 167.615, 422.329 173.426, 414.787 177.710 C 402.258 184.827, 401.071 185.746, 401.037 188.346 C 401.017 189.911, 400.069 192.498, 398.932 194.096 C 397.204 196.522, 396.175 196.995, 392.682 196.968 C 386.626 196.922, 383 193.374, 383 187.495 C 383 183.151, 364.429 166.693, 351.144 159.264 C 335.160 150.325, 321.682 146.764, 304 146.809 C 281.127 146.866, 259.885 153.665, 238.694 167.711 C 229.365 173.894, 228.918 174.351, 229.520 177.093 C 229.982 179.193, 229.553 180.818, 227.944 183.078 C 225.972 185.848, 225.279 186.144, 221.470 185.840 L 217.204 185.500 210.669 199 C 199.471 222.132, 196.236 236.617, 197.341 258.672 C 198.065 273.133, 199.986 283.103, 204.419 295.422 C 212.688 318.396, 216.874 325.618, 222.491 326.602 C 226.531 327.310, 228.808 329.574, 230.024 334.088 C 231.207 338.484, 236.505 342.773, 247.500 348.238 C 254.107 351.522, 268.002 356.456, 278 359.067 C 289.864 362.165, 313.564 361.843, 326.259 358.411 C 337.143 355.468, 351.765 347.753, 362 339.551 C 370.668 332.604, 380.817 322.187, 381.125 319.919 C 381.194 319.414, 381.363 318.550, 381.500 318 C 381.637 317.450, 381.806 314.537, 381.875 311.526 C 381.989 306.530, 382.258 305.918, 384.950 304.526 C 389.431 302.209, 392.784 302.630, 396.077 305.923 C 398.203 308.049, 399 309.808, 399 312.375 C 399 316.258, 401.166 318.141, 413.500 324.983 C 421.839 329.609, 454.437 351.354, 460.500 356.335 C 463.250 358.594, 466.088 361.243, 466.807 362.221 C 467.668 363.394, 469.430 364, 471.975 364 C 477.253 364, 478.823 364.758, 480.578 368.150 C 482.714 372.281, 480.775 376.080, 475.822 377.469 C 473.350 378.162, 471.193 379.810, 469.240 382.500 C 467.642 384.700, 462.063 391.225, 456.842 397 C 427.077 429.922, 400.191 448.185, 363.511 460.400 C 346.331 466.121, 327 469.615, 327 467 C 327 466.450, 325.988 465.967, 324.750 465.927 C 323.512 465.886, 330.150 463.910, 339.500 461.535 C 348.850 459.160, 361.178 455.564, 366.895 453.544 C 384.717 447.246, 407.012 435.086, 423.041 422.922 C 425.521 421.040, 428.664 418.723, 430.025 417.773 C 433.815 415.128, 430.065 416.738, 417.499 423.152 C 398.208 432.998, 384.266 436, 357.824 436 C 347.273 436, 339.065 436.430, 337.920 437.043 C 336.645 437.725, 334.804 437.764, 332.598 437.155 L 329.225 436.223 319.863 450.362 C 314.699 458.158, 310.463 465.621, 310.418 467 C 310.233 472.579, 309.895 473.634, 307.436 476.286 C 305.528 478.343, 304.184 478.938, 302.186 478.608 C 300.709 478.364, 298.363 478.127, 296.973 478.082 C 295.583 478.037, 292.947 476.632, 291.116 474.959 C 288.451 472.524, 286.164 471.631, 279.643 470.478 C 275.165 469.685, 270.204 469.029, 268.620 469.018 C 258.776 468.955, 224.531 458.322, 209.024 450.512 C 198.237 445.080, 184.968 436.666, 176.202 429.698 L 168.500 423.576 172.209 422.698 C 175.658 421.882, 176.325 422.133, 181.709 426.272 C 195.974 437.238, 213.864 447.028, 232.500 454.065 C 242.489 457.836, 273.892 466.441, 274.705 465.629 C 274.890 465.443, 270.870 463.548, 265.771 461.418 C 247.006 453.577, 228.102 437.894, 216.625 420.645 C 213.461 415.890, 210.339 411.983, 209.687 411.962 C 206.704 411.867, 195.443 410.059, 159.673 403.930 C 154.510 403.045, 153.472 403.163, 150.555 404.966 C 143.271 409.468, 136.022 406.288, 134.678 398 C 134.455 396.625, 134.211 397.585, 134.136 400.133 C 134.023 403.989, 134.336 404.855, 136 405.290 C 137.100 405.577, 138 406.265, 138 406.818 C 138 408.295, 135.537 407.680, 133.569 405.712 C 132.628 404.770, 131.391 404, 130.822 404 C 130.252 404, 130.045 403.325, 130.362 402.500 C 130.678 401.675, 130.501 401, 129.969 401 C 129.436 401, 129 400.325, 129 399.500 C 129 398.675, 128.646 398, 128.214 398 C 127.782 398, 127.429 397.100, 127.429 396 C 127.429 394.900, 127.837 394, 128.337 394 C 128.836 394, 128.627 393.212, 127.872 392.250 C 126.639 390.677, 126.671 390.634, 128.191 391.823 C 129.120 392.551, 129.657 393.729, 129.384 394.442 C 129.105 395.169, 129.788 395.973, 130.943 396.275 C 132.075 396.571, 133 396.636, 133 396.420 C 133 396.203, 129.228 390.283, 124.619 383.263 C 108.421 358.597, 97.896 333.156, 91.965 304.331 C 89.521 292.450, 89.450 288.425, 91.670 287.573 C 93.488 286.876, 94.960 288.496, 94.985 291.220 C 95.026 295.812, 102.566 323.863, 106.619 334.500 C 113.720 353.136, 117.785 360.996, 133.921 387.293 C 137.001 392.312, 137.725 391.342, 134.954 385.909 C 132.188 380.487, 127.458 361.868, 125.917 350.336 C 124.040 336.290, 125.804 317.574, 130.521 301.478 C 131 299.845, 129.447 298.117, 122.428 292.478 C 112.009 284.107, 101.685 273.262, 96.476 265.217 L 92.661 259.326 87.877 259.786 C 83.545 260.202, 82.792 259.946, 79.929 257.083 C 77.258 254.412, 76.865 253.424, 77.404 250.731 C 77.755 248.977, 79.666 245.879, 81.650 243.846 C 84.225 241.210, 85.369 239.054, 85.644 236.325 C 88.822 204.734, 96.252 179.137, 110.265 151.500 C 117.095 138.031, 122.678 129.334, 134.338 114 C 144.360 100.819, 145.288 99.374, 140.116 105 C 128.431 117.710, 111.422 143.273, 104.185 159 C 98.761 170.787, 94.104 183.350, 91.303 193.750 C 89.604 200.055, 88.043 204, 87.246 204 C 85.579 204, 84 208.172, 84 212.579 C 84 214.475, 83.605 216.809, 83.122 217.764 C 80.998 221.965, 79 227.185, 79 228.534 C 79 229.340, 78.658 230, 78.241 230 C 77.154 230, 74.716 234.141, 74.414 236.500 C 74.069 239.197, 70.094 246.894, 70.025 245 C 69.977 243.711, 69.841 243.702, 69.059 244.938 C 68.559 245.729, 68.355 248.879, 68.607 251.938 C 68.859 254.997, 69.163 258.695, 69.283 260.155 C 69.402 261.614, 69.785 262.633, 70.134 262.417 C 70.849 261.975, 73.609 268.080, 73.232 269.268 C 73.098 269.690, 73.663 271.650, 74.487 273.624 C 75.312 275.598, 75.738 277.615, 75.434 278.106 C 75.131 278.598, 75.385 279, 76 279 C 76.615 279, 76.896 279.359, 76.625 279.798 C 76.354 280.237, 76.545 281.249, 77.051 282.048 C 77.754 283.160, 77.973 282.924, 77.985 281.039 C 77.998 278.888, 78.249 279.065, 79.968 282.436 C 81.050 284.559, 81.772 286.567, 81.573 286.898 C 81.374 287.229, 82.050 291.775, 83.075 297 C 84.101 302.225, 85.006 308.300, 85.088 310.500 C 85.232 314.376, 85.260 314.407, 86 311.500 C 86.548 309.345, 86.820 309.064, 86.964 310.500 C 87.377 314.621, 88.097 317.991, 90.091 325.144 C 91.219 329.190, 92.400 333.625, 92.717 335 C 93.033 336.375, 93.850 337.831, 94.532 338.236 C 95.214 338.641, 96.088 340.656, 96.474 342.715 C 97.134 346.231, 103.987 361.062, 106.174 363.706 C 106.723 364.370, 106.882 365.382, 106.527 365.956 C 106.172 366.530, 106.277 367, 106.761 367 C 107.244 367, 109.349 370.600, 111.439 375 C 113.528 379.400, 115.634 383, 116.119 383 C 116.603 383, 117 383.715, 117 384.590 C 117 385.464, 117.886 386.927, 118.969 387.840 C 120.051 388.753, 121.130 390.625, 121.366 392 C 122.167 396.663, 125.245 403.222, 126.033 401.946 C 126.911 400.527, 128.988 403.788, 128.342 405.569 C 127.860 406.897, 140.325 419, 142.174 419 C 142.916 419, 144.637 420.350, 146 422 C 147.363 423.650, 149.230 425, 150.150 425 C 151.070 425, 152.958 426.350, 154.347 428 C 155.735 429.650, 157.212 431, 157.630 431 C 158.048 431, 161.902 434.579, 166.195 438.954 C 172.048 444.918, 174 446.404, 174 444.895 C 174 443.786, 174.456 443.164, 175.016 443.510 C 175.575 443.856, 175.804 444.508, 175.525 444.960 C 174.999 445.810, 178.871 448.744, 181.155 449.226 C 181.868 449.377, 182.953 449.950, 183.565 450.500 C 190.698 456.912, 196.407 461.525, 197.345 461.635 C 197.980 461.709, 199.001 461.821, 199.614 461.885 C 200.226 461.948, 201.914 463.186, 203.364 464.636 C 204.814 466.086, 206 466.731, 206 466.068 C 206 465.327, 207.117 465.660, 208.904 466.932 C 210.502 468.069, 212.302 469, 212.904 469 C 213.507 469, 214 469.450, 214 470 C 214 470.550, 214.492 471, 215.092 471 C 215.693 471, 217.370 471.932, 218.818 473.072 C 220.450 474.355, 221.593 474.720, 221.823 474.030 C 222.079 473.264, 222.579 473.235, 223.426 473.938 C 224.103 474.500, 225.522 475.115, 226.578 475.304 C 227.635 475.493, 230.242 476.402, 232.372 477.324 C 234.502 478.246, 236.774 479, 237.422 479 C 238.070 479, 239.090 479.490, 239.689 480.089 C 240.288 480.688, 242.965 481.360, 245.639 481.582 C 251.256 482.049, 259.265 484.009, 260.011 485.099 C 261.063 486.636, 269.420 488.938, 270.079 487.872 C 270.891 486.558, 272.094 486.535, 272.888 487.818 C 274.223 489.975, 292.864 495.715, 293.915 494.292 C 294.718 493.205, 299 492.828, 299 493.845 C 299 494.738, 299.726 494.853, 306.497 495.042 C 309.628 495.129, 312.135 494.459, 314.747 492.839 C 316.811 491.559, 318.725 490.482, 319 490.447 C 319.275 490.411, 321.525 489.999, 324 489.532 C 326.475 489.064, 329.639 488.615, 331.032 488.535 C 332.424 488.454, 334.102 488.055, 334.760 487.648 C 335.419 487.241, 337.430 486.759, 339.229 486.576 C 341.028 486.394, 343.625 485.983, 345 485.662 C 346.375 485.342, 349.300 484.867, 351.500 484.607 C 353.700 484.347, 358.425 483.360, 362 482.416 C 365.575 481.471, 370.075 480.616, 372 480.515 C 376.245 480.294, 381 478.436, 381 477 C 381 476.007, 384.818 474.027, 387.926 473.409 C 390.267 472.943, 396 469.609, 396 468.714 C 396 468.256, 396.416 468.139, 396.924 468.453 C 398.010 469.124, 406.571 464.746, 409.483 462.030 C 410.592 460.996, 412.175 460.004, 413 459.825 C 413.825 459.646, 415.932 458.488, 417.683 457.250 C 419.434 456.012, 421.347 455, 421.933 455 C 422.520 455, 423 454.325, 423 453.500 C 423 452.126, 424.221 451.541, 426.324 451.906 C 426.778 451.985, 426.864 451.588, 426.515 451.025 C 426.167 450.461, 426.290 450, 426.788 450 C 427.286 450, 428.664 449.212, 429.850 448.250 C 436.662 442.720, 438.476 441.187, 441.787 438.163 C 443.797 436.327, 445.595 435.285, 445.782 435.847 C 446.222 437.165, 452.995 429.702, 453.015 427.879 C 453.028 426.726, 453.171 426.722, 453.889 427.855 C 454.541 428.884, 455.438 428.317, 457.624 425.494 C 459.206 423.450, 462.239 420.141, 464.365 418.139 C 466.491 416.138, 468.600 413.600, 469.052 412.500 C 469.832 410.599, 469.876 410.612, 469.937 412.750 C 470.002 415.054, 471.988 416.009, 472.015 413.750 C 472.026 412.865, 472.291 412.912, 472.923 413.909 C 473.413 414.684, 473.705 415.809, 473.571 416.409 C 473.437 417.009, 473.501 417.210, 473.712 416.856 C 473.923 416.502, 474.936 416.432, 475.963 416.701 C 477.193 417.022, 478.383 416.345, 479.450 414.717 C 480.821 412.625, 480.874 411.805, 479.797 409.373 C 479.097 407.793, 477.844 405.959, 477.012 405.298 C 475.693 404.250, 475.819 403.786, 478 401.663 C 479.375 400.325, 481.620 397.828, 482.989 396.115 C 484.358 394.402, 486.045 393, 486.739 393 C 487.433 393, 488 392.357, 488 391.571 C 488 390.786, 488.595 389.548, 489.321 388.821 C 490.048 388.095, 490.723 387.163, 490.821 386.750 C 490.920 386.337, 491.034 385.887, 491.077 385.750 C 492.655 380.594, 492.275 375.347, 489.974 370.500 C 487.728 365.768, 487.448 365.061, 487.110 363.250 C 487.033 362.837, 486.601 363.081, 486.150 363.792 C 485.558 364.724, 484.562 363.976, 482.575 361.108 C 480.784 358.523, 479.301 357.331, 478.338 357.701 C 477.522 358.013, 475.556 357.309, 473.968 356.135 C 470.557 353.613, 470 353.517, 470 355.452 C 470 356.470, 469.208 356.171, 467.354 354.452 C 465.899 353.104, 463.900 352, 462.913 352 C 461.926 352, 460.840 351.550, 460.500 351 C 460.160 350.450, 459.403 350, 458.819 350 C 458.191 350, 458.318 350.681, 459.128 351.661 C 460.379 353.175, 460.308 353.202, 458.315 351.961 C 457.113 351.212, 456.322 350.288, 456.558 349.907 C 456.793 349.525, 455.965 348.957, 454.716 348.644 C 453.468 348.330, 450.474 346.386, 448.063 344.322 C 445.653 342.259, 443.190 340.496, 442.590 340.406 C 440.061 340.024, 430.994 333.570, 430.921 332.101 C 430.878 331.220, 430.630 331.018, 430.371 331.651 C 429.832 332.967, 412.356 322.364, 412.738 320.952 C 412.869 320.468, 412.194 320.365, 411.238 320.723 C 409.702 321.299, 409.664 321.173, 410.907 319.646 C 412.133 318.139, 412.028 317.346, 410.087 313.459 C 408.634 310.551, 407.206 309, 405.980 309 C 404.945 309, 403.641 308.212, 403.080 307.250 C 402.142 305.639, 402.058 305.657, 402.030 307.486 C 402.005 309.125, 401.607 308.916, 399.750 306.289 C 395.068 299.666, 387.991 299.204, 381.653 305.108 C 380.135 306.523, 379.722 308.103, 379.859 311.973 C 380.042 317.162, 379.573 317.651, 375 317.035 C 373.796 316.873, 373.747 317.086, 374.750 318.116 C 376.321 319.730, 376.389 321.358, 374.845 320.405 C 374.111 319.950, 373.963 320.132, 374.440 320.902 C 376.379 324.040, 372.899 328.968, 363 337.105 C 352.944 345.370, 343.022 350.683, 328.500 355.578 C 321.492 357.940, 318.484 358.334, 304.244 358.755 C 294.821 359.033, 287.465 358.840, 286.744 358.295 C 286.060 357.777, 283.931 357.259, 282.014 357.143 C 277.816 356.889, 268.211 354.468, 262.782 352.296 C 259.962 351.168, 259.218 350.478, 260.169 349.874 C 261.186 349.230, 261.087 349.027, 259.750 349.015 C 258.788 349.007, 257.999 348.663, 257.999 348.250 C 257.996 346.815, 252.919 341.605, 251.290 341.366 C 250.388 341.234, 249.231 340.377, 248.719 339.462 C 248.207 338.548, 246.936 337.069, 245.894 336.177 C 244.852 335.285, 244 334.136, 244 333.622 C 244 333.109, 242.875 331.214, 241.500 329.411 C 240.125 327.608, 239 325.893, 239 325.600 C 239 325.307, 237.403 323.470, 235.451 321.517 C 233.499 319.565, 232.175 317.526, 232.509 316.986 C 232.843 316.446, 232.452 315.056, 231.641 313.898 L 230.166 311.792 229.833 314.112 C 229.570 315.947, 228.772 314.975, 226.020 309.466 C 224.106 305.635, 222.081 302.169, 221.520 301.765 C 220.877 301.302, 220.969 301.025, 221.770 301.015 C 222.690 301.004, 222.520 299.965, 221.156 297.250 C 219.194 293.347, 217.905 287.982, 217.492 282 C 217.360 280.075, 216.916 277.698, 216.506 276.717 C 215.678 274.737, 216.499 241.231, 217.491 236.500 C 217.837 234.850, 218.543 233.072, 219.060 232.550 C 219.577 232.028, 220 230.340, 220 228.800 C 220 227.260, 220.498 226, 221.107 226 C 221.716 226, 221.946 225.302, 221.618 224.448 C 221.291 223.594, 221.366 223.108, 221.784 223.367 C 222.203 223.626, 224.076 220.745, 225.945 216.966 C 227.815 213.187, 229.725 210.330, 230.189 210.617 C 230.653 210.904, 230.731 211.627, 230.362 212.224 C 229.979 212.844, 230.153 213.024, 230.769 212.643 C 231.361 212.277, 232.122 210.723, 232.458 209.190 C 233.078 206.370, 237.342 201, 238.963 201 C 239.448 201, 240.352 199.465, 240.971 197.588 C 242.082 194.222, 244.318 192.460, 246.090 193.556 C 246.591 193.865, 247 193.639, 247 193.052 C 247 192.466, 248.110 191.022, 249.466 189.843 C 250.822 188.663, 251.696 187.316, 251.407 186.849 C 251.118 186.382, 251.246 185.966, 251.691 185.923 C 255.668 185.547, 259 183.335, 259 181.071 C 259 180.482, 259.450 179.944, 260 179.875 C 261.326 179.709, 262.939 179.299, 263.250 179.048 C 263.387 178.938, 264.284 178.697, 265.243 178.513 C 266.201 178.329, 269.024 177.040, 271.516 175.647 C 274.008 174.254, 275.725 173.651, 275.332 174.307 C 274.817 175.165, 275.046 175.152, 276.150 174.259 C 276.994 173.576, 277.969 173.303, 278.318 173.651 C 278.666 174, 279.638 173.716, 280.476 173.020 C 281.314 172.324, 282 172.041, 282 172.391 C 282 172.741, 283.688 172.300, 285.750 171.411 C 287.813 170.523, 290.625 169.668, 292 169.512 C 293.375 169.355, 295.805 168.885, 297.399 168.468 C 299.652 167.878, 300.119 167.998, 299.495 169.009 C 298.925 169.930, 299.081 170.068, 300.031 169.481 C 300.767 169.026, 305.224 168.567, 309.935 168.462 C 314.646 168.357, 318.950 168.144, 319.500 167.988 C 321.090 167.540, 329 169.182, 329 169.961 C 329 170.349, 329.563 170.729, 330.250 170.804 C 336.328 171.473, 340.608 172.998, 336.417 173.002 C 335.128 173.003, 335.647 173.578, 338 174.757 C 339.925 175.722, 341.650 176.171, 341.833 175.756 C 342.374 174.530, 344.216 174.886, 346.084 176.576 C 347.041 177.442, 348.427 178.254, 349.162 178.380 C 352.130 178.888, 357.575 182.465, 361.609 186.557 L 365.878 190.888 366.193 188.194 C 366.502 185.546, 366.554 185.571, 369.242 189.712 C 370.747 192.029, 373.220 194.598, 374.739 195.422 C 376.257 196.246, 376.872 196.938, 376.104 196.960 C 374.153 197.016, 379.759 202.069, 382.320 202.562 C 385.273 203.130, 386.893 204.996, 384.450 205.015 C 382.824 205.028, 382.749 205.192, 384 206.004 C 386.231 207.451, 397.867 206.990, 399.466 205.391 C 400.208 204.649, 402.319 203.848, 404.158 203.610 C 408.522 203.047, 413 201.289, 413 200.139 C 413 199.638, 414.575 198.480, 416.500 197.567 C 418.425 196.654, 420 195.402, 420 194.786 C 420 194.171, 420.284 193.951, 420.632 194.298 C 420.979 194.646, 423.229 193.778, 425.632 192.370 C 428.034 190.962, 430 190.095, 430 190.444 C 430 191.083, 431.507 189.985, 435.072 186.750 C 436.132 185.787, 437.217 185.113, 437.483 185.250 C 437.749 185.387, 439.135 184.622, 440.564 183.549 C 441.993 182.476, 444.025 181.464, 445.081 181.299 C 446.136 181.135, 447.829 180.871, 448.841 180.713 C 449.854 180.555, 452.441 178.759, 454.591 176.721 C 456.741 174.684, 458.808 173.013, 459.185 173.009 C 459.562 173.004, 461.137 172.477, 462.685 171.839 C 464.233 171.200, 465.884 170.765, 466.353 170.873 C 466.823 170.981, 468.238 169.956, 469.498 168.596 C 470.759 167.236, 472.124 166.433, 472.532 166.812 C 472.940 167.190, 473.063 166.829, 472.806 166.008 C 472.358 164.578, 474.521 162.747, 478.250 161.399 C 479.212 161.051, 480 160.369, 480 159.883 C 480 159.398, 480.695 159, 481.544 159 C 482.441 159, 482.965 158.294, 482.794 157.315 C 482.614 156.282, 483.660 155.025, 485.500 154.065 C 488.890 152.297, 490.112 150.956, 489.653 149.509 C 489.481 148.964, 489.954 147.904, 490.704 147.153 C 491.702 146.155, 491.900 144.269, 491.437 140.144 C 491.090 137.040, 490.824 133.667, 490.848 132.648 C 490.891 130.800, 477.754 117, 475.951 117 C 475.428 117, 474.798 116.975, 474.551 116.945 C 474.305 116.915, 471.267 114.219, 467.801 110.953 C 464.336 107.688, 461.102 105.012, 460.615 105.008 C 459.705 105, 455.732 101.032, 454.303 98.703 C 453.861 97.984, 451.587 95.882, 449.250 94.031 C 446.913 92.180, 445 90.013, 445 89.216 C 445 88.278, 444.321 87.944, 443.075 88.270 C 441.724 88.623, 441.308 88.360, 441.682 87.387 C 441.975 86.624, 441.746 86, 441.174 86 C 440.603 86, 439.830 85.041, 439.458 83.868 C 438.960 82.300, 438.570 82.078, 437.982 83.030 C 437.386 83.993, 436.529 83.581, 434.623 81.412 C 433.215 79.810, 432.049 78.185, 432.032 77.801 C 432.014 77.416, 430.621 75.812, 428.935 74.237 C 427.249 72.662, 425.324 70.276, 424.656 68.936 C 423.988 67.596, 422.911 66.500, 422.264 66.500 C 421.616 66.500, 420.460 65.644, 419.696 64.599 C 418.614 63.120, 418.126 62.987, 417.498 64.003 C 416.996 64.815, 417.084 65.066, 417.732 64.666 C 418.304 64.312, 418.998 64.884, 419.273 65.936 C 419.644 67.356, 419.373 67.697, 418.223 67.255 C 417.131 66.836, 416.910 67.045, 417.475 67.960 C 418.013 68.830, 417.824 69.108, 416.904 68.801 C 416.148 68.549, 415.102 66.804, 414.578 64.922 C 414.055 63.040, 412.923 61.050, 412.063 60.500 C 409.903 59.118, 404.923 58.066, 405.581 59.131 M 377 77.164 C 356.304 81.497, 352.755 82.814, 352.407 86.296 C 352.065 89.707, 351.755 89.563, 377.500 97.984 C 403.015 106.330, 437.691 118.702, 453 124.920 C 465.444 129.975, 468 130.707, 468 129.218 C 468 128.058, 428.665 89.318, 420.224 82.166 C 413.052 76.087, 410.743 74.989, 409.471 77.048 C 408.683 78.321, 403.744 77.627, 398.750 75.540 C 394.049 73.576, 394.193 73.565, 377 77.164 M 448.238 78.162 C 445.341 81.059, 448.481 86.448, 451.834 84.333 C 454.293 82.782, 454.041 77.577, 451.488 77.212 C 450.382 77.053, 448.919 77.481, 448.238 78.162 M 214.557 80.335 C 212.218 82.045, 213.323 84, 216.629 84 C 218.637 84, 219.075 83.565, 218.820 81.828 C 218.418 79.097, 216.952 78.584, 214.557 80.335 M 449 81 C 449 82.111, 449.667 83, 450.500 83 C 451.333 83, 452 82.111, 452 81 C 452 79.889, 451.333 79, 450.500 79 C 449.667 79, 449 79.889, 449 81 M 438 88.313 C 438 88.485, 439.462 89.948, 441.250 91.563 L 444.500 94.500 441.563 91.250 C 438.825 88.221, 438 87.540, 438 88.313 M 322.160 91.512 C 312.003 94.136, 257.082 112.369, 253.188 114.409 C 251.240 115.430, 250.757 116.528, 250.608 120.269 C 250.370 126.245, 247.963 129, 242.982 129 C 239.432 129, 239.163 129.246, 236.701 134.750 C 233.854 141.115, 226 164.529, 226 166.652 C 226 168.584, 227.322 168.323, 230.575 165.750 C 232.140 164.512, 238.429 160.125, 244.552 156 C 250.675 151.875, 262.843 143.351, 271.592 137.058 C 280.342 130.764, 297.175 118.663, 309 110.165 C 333.781 92.357, 331.586 94.128, 332.455 91.250 C 333.274 88.538, 333.712 88.527, 322.160 91.512 M 350.588 95.370 C 351.841 98.634, 386.288 127.283, 415.277 149.170 L 432.058 161.840 438.556 157.670 C 442.131 155.377, 449.768 150.586, 455.528 147.025 C 466.521 140.229, 467.917 138.286, 463.750 135.591 C 460.570 133.533, 417.855 117.633, 383 105.531 C 366.775 99.898, 352.707 94.948, 351.739 94.533 C 350.386 93.953, 350.119 94.147, 350.588 95.370 M 325 105.476 C 320.325 108.965, 304.800 120.256, 290.500 130.565 C 276.200 140.875, 265.400 148.983, 266.500 148.584 C 306.572 134.039, 347.445 142.698, 377.225 172.041 C 381.501 176.255, 385 179.584, 385 179.439 C 385 179.294, 378.865 167.999, 371.367 154.338 C 363.869 140.677, 354.784 123.492, 351.178 116.149 C 347.572 108.806, 343.694 102.219, 342.561 101.511 C 341.427 100.803, 338.925 99.978, 337 99.678 C 333.880 99.190, 332.578 99.820, 325 105.476 M 354.066 110.500 C 356.382 114.900, 362.230 125.700, 367.062 134.500 C 371.893 143.300, 379.447 157.250, 383.847 165.500 L 391.847 180.500 395.348 180.289 C 397.274 180.172, 401.246 178.921, 404.175 177.509 C 412.147 173.663, 425.993 165.598, 425.997 164.798 C 425.999 164.412, 423.863 162.640, 421.250 160.861 C 414.387 156.186, 397.404 143.385, 391.008 138.067 C 371.898 122.176, 358.869 111.064, 354.678 107.082 L 349.856 102.500 354.066 110.500 M 455.850 105.789 C 457.084 107.522, 458.611 109.259, 459.243 109.650 C 459.876 110.041, 459.384 108.943, 458.150 107.211 C 456.916 105.478, 455.389 103.741, 454.757 103.350 C 454.124 102.959, 454.616 104.057, 455.850 105.789 M 164.015 105.750 C 164.028 107.246, 164.172 107.282, 165 106 C 165.533 105.175, 165.969 104.950, 165.969 105.500 C 165.969 106.837, 164.039 109.778, 164 108.500 C 163.983 107.950, 163.539 108.175, 163.013 109 C 162.331 110.069, 160.276 110.500, 155.856 110.500 L 149.655 110.500 146.876 116 C 135.441 138.633, 130.340 161.679, 132.436 181.246 L 133.149 187.904 140.324 182.602 C 148.761 176.368, 156.741 171.212, 174.500 160.523 C 206.055 141.529, 233.925 120.271, 230.841 117.548 C 230.654 117.382, 220.825 114.903, 209 112.038 C 173.597 103.462, 163.984 102.118, 164.015 105.750 M 103.268 111.097 C 100.193 112.234, 99.131 116.891, 101.544 118.656 C 105.295 121.399, 109 119.603, 109 115.041 C 109 111.868, 106.266 109.988, 103.268 111.097 M 140.787 113.250 C 139.439 115.037, 134.342 122.575, 129.461 130 C 110.696 158.543, 101.740 179.965, 94.482 213.672 C 92.567 222.566, 91 230.366, 91 231.006 C 91 231.645, 93.215 228.867, 95.923 224.834 C 100.739 217.661, 118.413 198.604, 124.632 193.879 L 127.764 191.500 126.794 184 C 124.264 164.449, 128.257 142.402, 137.977 122.250 C 141.227 115.513, 143.740 110, 143.562 110 C 143.383 110, 142.135 111.463, 140.787 113.250 M 102.607 113.582 C 101.412 116.695, 101.980 118, 104.531 118 C 107.477 118, 108.768 115.630, 106.989 113.487 C 105.380 111.548, 103.371 111.592, 102.607 113.582 M 227.628 130.750 C 217.796 138.956, 191.666 156.923, 173.500 167.970 C 161.397 175.329, 147.441 184.606, 138.822 191.019 C 133.809 194.750, 133.904 194.317, 136.137 203.242 L 137.073 206.984 145.871 202.565 C 157.581 196.684, 175.871 189.061, 190 184.174 C 207.098 178.259, 207.645 178.016, 206.072 177.044 C 204.966 176.361, 205.115 175.549, 206.867 172.715 C 209.061 169.165, 211.316 168.038, 216.271 168.014 C 219.508 167.998, 219.655 167.715, 224.114 153 C 225.863 147.225, 228.762 139.012, 230.555 134.750 C 232.348 130.488, 233.434 127, 232.968 127 C 232.503 127, 230.100 128.688, 227.628 130.750 M 145.362 155.500 C 144.569 157.564, 145.644 160, 147.346 160 C 149.393 160, 151.135 157.514, 150.410 155.627 C 149.626 153.584, 146.131 153.496, 145.362 155.500 M 187.103 191.548 C 166.699 198.993, 139 212.159, 139 214.413 C 139 217.592, 152.593 248, 154.014 248 C 154.411 248, 157.608 243.623, 161.118 238.273 C 173.462 219.460, 190.691 198.710, 200.361 191.011 C 205.498 186.921, 207.222 184.837, 205.250 185.100 C 204.838 185.155, 196.671 188.057, 187.103 191.548 M 197.778 200.799 C 185.098 214.857, 177.017 225.203, 166.434 240.929 L 157.746 253.837 163.787 262.169 C 170.307 271.161, 199.633 306.293, 201.061 306.822 C 201.539 306.998, 200.790 303.848, 199.396 299.822 C 187.194 264.553, 188.416 230.374, 202.946 200.500 C 205.621 195, 207.725 190.409, 207.620 190.299 C 207.516 190.188, 203.087 194.913, 197.778 200.799 M 88.167 197.667 C 87.490 200.198, 87.113 202.446, 87.330 202.663 C 87.547 202.880, 88.298 201.007, 89 198.500 C 89.702 195.993, 90.078 193.745, 89.837 193.503 C 89.595 193.262, 88.844 195.135, 88.167 197.667 M 120.445 205.882 C 113.457 211.984, 96.101 231.304, 93.587 235.780 C 93.085 236.674, 95.359 235.041, 98.641 232.152 C 104.373 227.107, 116.612 218.565, 126.478 212.724 C 131.149 209.959, 131.164 209.932, 130.471 205.724 C 129.263 198.394, 129.015 198.398, 120.445 205.882 M 130.500 217.405 C 129.400 218.121, 124.225 221.356, 119 224.596 C 113.775 227.836, 105.609 233.749, 100.853 237.736 L 92.207 244.986 93.353 248.743 C 93.984 250.809, 96.469 255.371, 98.876 258.881 C 103.398 265.474, 124.133 287.004, 129.594 290.777 L 132.689 292.915 135.952 284.207 C 137.747 279.418, 141.606 270.880, 144.528 265.232 L 149.840 254.965 144.069 242.732 C 140.895 236.005, 137.066 227.238, 135.562 223.250 C 134.057 219.262, 132.752 216.024, 132.663 216.052 C 132.573 216.081, 131.600 216.690, 130.500 217.405 M 76.787 226 C 76.545 227.650, 76.718 229, 77.173 229 C 77.628 229, 78 227.650, 78 226 C 78 224.350, 77.826 223, 77.613 223 C 77.401 223, 77.029 224.350, 76.787 226 M 150.741 266.179 C 146.940 272.666, 141.273 285.341, 139.489 291.348 C 138.005 296.347, 138.022 296.508, 140.216 298.163 C 145.015 301.783, 174.887 315.446, 175.865 314.468 C 176.516 313.817, 164.854 285.269, 158.957 273.078 L 153.414 261.618 150.741 266.179 M 166 274.334 C 166 274.772, 166.544 276.114, 167.209 277.316 C 167.875 278.517, 171.848 288.024, 176.039 298.443 C 182.999 315.744, 183.913 317.467, 186.580 318.312 C 188.186 318.821, 194.193 320.984, 199.929 323.119 C 205.665 325.254, 211.020 327, 211.830 327 C 212.639 327, 207.267 320.813, 199.893 313.250 C 186.177 299.184, 173.450 284.615, 168.678 277.518 C 167.205 275.328, 166 273.895, 166 274.334 M 134.588 309.867 C 129.346 332.010, 129.820 349.096, 136.285 371 C 137.664 375.675, 139.701 381.584, 140.810 384.131 C 142.744 388.572, 143 388.764, 147.060 388.820 C 151.106 388.876, 151.781 388.408, 162.405 378.189 C 168.517 372.310, 175.519 365.620, 177.966 363.322 C 182.146 359.396, 182.335 358.994, 181.089 356.667 C 179.889 354.423, 180.034 353.851, 182.632 350.595 C 184.209 348.618, 185.889 347, 186.363 347 C 187.677 347, 186.591 342.456, 182.821 332.183 L 179.401 322.865 167.429 318.130 C 160.844 315.525, 151.115 311.108, 145.807 308.314 L 136.158 303.235 134.588 309.867 M 446 314.878 C 446 318.687, 448.170 320.515, 450.936 319.034 C 454.677 317.032, 453.216 312, 448.893 312 C 446.373 312, 446 312.371, 446 314.878 M 447.412 314.369 C 446.661 316.325, 447.684 318, 449.629 318 C 450.610 318, 451.027 317.240, 450.820 315.828 C 450.432 313.191, 448.226 312.247, 447.412 314.369 M 389.697 322.144 C 388.878 323.440, 387.875 325.625, 387.468 327 C 386.637 329.811, 371.499 362.057, 363.942 377.115 C 361.224 382.532, 359 387.422, 359 387.982 C 359 388.570, 361.793 389, 365.615 389 L 372.231 389 378.865 382.149 C 382.514 378.382, 392.025 369.516, 400 362.447 C 407.975 355.379, 417.050 347.215, 420.167 344.306 L 425.833 339.017 423.167 337.163 C 415.348 331.725, 396.493 320.849, 394.029 320.356 C 391.775 319.905, 390.877 320.276, 389.697 322.144 M 186 324.533 C 186 325.444, 192.163 341.414, 193.549 344.094 C 194.895 346.698, 195.549 347.079, 197.727 346.532 C 200.834 345.753, 202.311 347.551, 200.833 350.313 C 199.201 353.361, 201.709 354.914, 213.132 357.926 C 218.834 359.430, 224.557 361.006, 225.849 361.429 C 228.689 362.358, 228.517 361.578, 223.408 350.368 C 220.332 343.619, 219.559 342.692, 215.500 340.897 C 211.695 339.214, 211 338.469, 211 336.076 C 211 333.093, 209.800 331.663, 206.500 330.713 C 205.400 330.397, 200.338 328.802, 195.250 327.170 C 190.162 325.538, 186 324.351, 186 324.533 M 382.024 325.955 C 379.832 330.051, 369.284 341.539, 363.918 345.675 C 351.313 355.390, 335.382 362.692, 320.662 365.503 C 301.488 369.165, 274.921 365.733, 259.099 357.551 C 253.268 354.536, 254.746 356.613, 261.219 360.530 C 281.924 373.059, 299.340 379.845, 322.791 384.521 C 330.101 385.979, 339.716 387.245, 344.158 387.335 L 352.233 387.500 368.082 356.049 C 376.799 338.750, 383.758 324.424, 383.546 324.213 C 383.335 324.002, 382.650 324.785, 382.024 325.955 M 429 342.794 C 429 343.231, 417.975 353.683, 404.500 366.020 C 391.025 378.358, 380 388.645, 380 388.880 C 380 390.021, 405.232 387.745, 417.092 385.535 C 437.730 381.689, 466 373.280, 466 370.987 C 466 370.534, 466.255 369.500, 466.566 368.689 C 467.123 367.237, 452.669 356.173, 437.095 346.130 C 430.689 342, 429 341.303, 429 342.794 M 143.200 344.200 C 141.233 346.167, 141.832 348, 144.441 348 C 147.441 348, 148.579 346.402, 146.964 344.456 C 145.495 342.687, 144.763 342.637, 143.200 344.200 M 226 343.557 C 226 344.742, 235.385 363.073, 236.413 363.895 C 237.011 364.374, 243.350 367.063, 250.500 369.870 C 269.479 377.324, 283.312 385.498, 319.796 410.819 C 327.221 415.972, 328.577 416.557, 332.711 416.393 L 337.331 416.209 343.206 405.189 L 349.082 394.168 342.291 393.479 C 323.534 391.576, 300.342 385.660, 283.421 378.463 C 268.328 372.043, 264.272 369.581, 245.424 355.398 C 230.988 344.536, 226 341.495, 226 343.557 M 198.206 361.661 C 195.509 362.237, 195.509 362.239, 201.001 376 C 207.032 391.110, 214.762 407, 216.082 407 C 216.749 407, 225.375 408.153, 235.251 409.563 C 245.127 410.973, 253.323 411.985, 253.464 411.813 C 253.606 411.641, 251.276 407.450, 248.286 402.500 C 245.297 397.550, 240.103 387.797, 236.744 380.826 L 230.637 368.153 219.608 364.930 C 208.504 361.685, 202.438 360.759, 198.206 361.661 M 185.300 364.288 C 184.860 364.997, 178.425 371.177, 171 378.022 C 155.287 392.507, 153.838 394.013, 154.292 395.375 C 154.777 396.830, 158.271 397.636, 178.500 400.957 C 202.308 404.865, 207.413 405.486, 206.774 404.399 C 204.692 400.859, 197.554 384.583, 194.492 376.395 C 192.456 370.953, 190.372 365.712, 189.860 364.750 C 188.767 362.694, 186.436 362.458, 185.300 364.288 M 240 373.167 C 240 374.425, 249.504 392.666, 255.316 402.563 C 261.546 413.171, 260.469 412.598, 279.500 415.436 C 302.813 418.912, 320.941 421.186, 322.143 420.786 C 323.125 420.458, 298.494 403.221, 280.551 391.677 C 269.984 384.879, 259.050 379.191, 248.482 374.993 C 239.888 371.579, 240 371.603, 240 373.167 M 459.257 379.461 C 441.193 387.871, 406.224 394.945, 382.289 395.032 L 373.500 395.064 358.750 409.413 C 347.329 420.524, 344 424.340, 344 426.322 C 344 427.730, 344.482 429.180, 345.072 429.544 C 347.479 431.032, 375.477 430.305, 384 428.533 C 409.649 423.203, 437.800 408.265, 455.584 390.549 C 468.976 377.209, 469.867 374.521, 459.257 379.461 M 91.964 382.067 C 90.264 385.244, 92.179 389, 95.500 389 C 98.639 389, 100.998 384.812, 99.345 382.172 C 97.698 379.541, 93.349 379.479, 91.964 382.067 M 93.667 381.667 C 92.859 382.475, 92.781 386.447, 93.558 387.225 C 93.865 387.531, 94.990 387.554, 96.058 387.275 C 98.433 386.654, 98.698 382.482, 96.418 381.607 C 94.460 380.855, 94.478 380.855, 93.667 381.667 M 353.659 397.250 C 352.897 398.488, 350.191 403.479, 347.648 408.341 L 343.023 417.183 354.511 406.468 C 360.830 400.575, 366 395.584, 366 395.376 C 366 395.169, 363.535 395, 360.523 395 C 355.921 395, 354.825 395.359, 353.659 397.250 M 403.336 402.567 C 402.502 404.739, 404.618 406.782, 406.133 405.267 C 407.413 403.987, 406.620 401, 405 401 C 404.415 401, 403.667 401.705, 403.336 402.567 M 474.364 411.493 C 474.018 412.396, 474.214 413.614, 474.800 414.200 C 476.324 415.724, 479.210 414.331, 478.812 412.265 C 478.369 409.963, 475.165 409.407, 474.364 411.493 M 219 413.794 C 219 415.011, 224.973 422.123, 232.937 430.388 C 244.496 442.386, 255.009 450.042, 270.307 457.602 C 287.782 466.238, 294.647 467.434, 288.296 460.735 C 282.539 454.663, 270.214 438.149, 264.472 428.817 C 261.320 423.693, 258.665 419.403, 258.572 419.285 C 258.479 419.166, 250.550 417.928, 240.951 416.533 C 231.353 415.138, 222.488 413.835, 221.250 413.637 C 220.012 413.439, 219 413.510, 219 413.794 M 267.588 422.603 C 272.247 429.991, 295.030 459.798, 296.428 460.334 C 297.293 460.666, 298.749 460.650, 299.664 460.299 C 300.783 459.869, 301.091 460.043, 300.605 460.830 C 299 463.427, 303.369 461.817, 306.249 458.750 C 310.628 454.086, 325 431.963, 325 429.885 C 325 428.923, 324.209 427.884, 323.243 427.577 C 320.989 426.862, 304.211 424.522, 287.233 422.555 C 279.936 421.710, 272.120 420.723, 269.864 420.362 L 265.761 419.706 267.588 422.603 M 369.688 467.646 C 368.272 469.061, 369.073 471, 371.073 471 C 372.471 471, 373.041 470.457, 372.823 469.333 C 372.466 467.492, 370.759 466.574, 369.688 467.646" stroke="none" fill="currentColor" fill-rule="evenodd" opacity="0.6"/><path d="M 363.109 33.933 C 362.403 34.369, 361.977 35.800, 362.163 37.113 C 362.625 40.382, 367.350 40.553, 367.811 37.318 C 368.162 34.847, 365.144 32.675, 363.109 33.933 M 299.191 35.125 C 297.961 35.580, 296.692 36.638, 296.371 37.476 C 295.994 38.458, 294.481 39, 292.116 39 C 290.097 39, 287.557 39.618, 286.473 40.372 C 283.411 42.502, 278.133 43.355, 276.484 41.987 C 273.045 39.132, 242.781 46.330, 219 55.659 C 202.677 62.062, 181.012 73.473, 169.294 81.839 C 158.842 89.302, 155.917 90.844, 160.694 86.375 C 162.237 84.932, 162.713 84.312, 161.750 84.998 C 160.787 85.684, 160 85.895, 160 85.467 C 160 85.040, 159.189 85.424, 158.198 86.321 C 157.206 87.218, 155.519 88.120, 154.448 88.326 C 153.376 88.531, 151.734 89.032, 150.798 89.438 C 149.862 89.845, 148.618 89.882, 148.033 89.521 C 147.449 89.159, 145.177 90.787, 142.985 93.138 C 139.953 96.389, 139 98.227, 139 100.821 L 139 104.230 141.658 102.488 L 144.317 100.746 142.090 103.873 C 139.997 106.812, 138.043 108.358, 139.595 105.845 C 140.041 105.124, 139.869 104.963, 139.138 105.415 C 138.494 105.813, 138.218 106.543, 138.524 107.038 C 138.830 107.533, 136.216 111.665, 132.715 116.219 C 118.925 134.160, 108.635 152.316, 100.071 173.819 C 93.292 190.841, 87.846 214.433, 85.644 236.325 C 85.369 239.054, 84.225 241.210, 81.650 243.846 C 79.666 245.879, 77.755 248.977, 77.404 250.731 C 76.865 253.424, 77.258 254.412, 79.929 257.083 C 82.792 259.946, 83.545 260.202, 87.877 259.786 L 92.661 259.326 96.476 265.217 C 101.685 273.262, 112.009 284.107, 122.428 292.478 C 129.447 298.117, 131 299.845, 130.521 301.478 C 125.804 317.574, 124.040 336.290, 125.917 350.336 C 127.458 361.868, 132.188 380.487, 134.954 385.909 C 137.725 391.342, 137.001 392.312, 133.921 387.293 C 117.785 360.996, 113.720 353.136, 106.619 334.500 C 102.566 323.863, 95.026 295.812, 94.985 291.220 C 94.960 288.496, 93.488 286.876, 91.670 287.573 C 89.450 288.425, 89.521 292.450, 91.965 304.331 C 97.896 333.156, 108.421 358.597, 124.619 383.263 C 129.228 390.283, 133 396.203, 133 396.420 C 133 396.636, 132.075 396.571, 130.943 396.275 C 129.788 395.973, 129.105 395.169, 129.384 394.442 C 129.657 393.729, 129.120 392.551, 128.191 391.823 C 126.671 390.634, 126.639 390.677, 127.872 392.250 C 128.627 393.212, 128.836 394, 128.337 394 C 127.837 394, 127.429 394.900, 127.429 396 C 127.429 397.100, 127.782 398, 128.214 398 C 128.646 398, 129 398.675, 129 399.500 C 129 400.325, 129.436 401, 129.969 401 C 130.501 401, 130.678 401.675, 130.362 402.500 C 130.045 403.325, 130.252 404, 130.822 404 C 131.391 404, 132.628 404.770, 133.569 405.712 C 135.537 407.680, 138 408.295, 138 406.818 C 138 406.265, 137.100 405.577, 136 405.290 C 134.336 404.855, 134.023 403.989, 134.136 400.133 C 134.211 397.585, 134.455 396.625, 134.678 398 C 136.022 406.288, 143.271 409.468, 150.555 404.966 C 153.472 403.163, 154.510 403.045, 159.673 403.930 C 195.443 410.059, 206.704 411.867, 209.687 411.962 C 210.339 411.983, 213.461 415.890, 216.625 420.645 C 228.102 437.894, 247.006 453.577, 265.771 461.418 C 270.870 463.548, 274.890 465.443, 274.705 465.629 C 273.892 466.441, 242.489 457.836, 232.500 454.065 C 213.864 447.028, 195.974 437.238, 181.709 426.272 C 176.325 422.133, 175.658 421.882, 172.209 422.698 L 168.500 423.576 176.202 429.698 C 184.968 436.666, 198.237 445.080, 209.024 450.512 C 224.531 458.322, 258.776 468.955, 268.620 469.018 C 270.204 469.029, 275.165 469.685, 279.643 470.478 C 286.164 471.631, 288.451 472.524, 291.116 474.959 C 292.947 476.632, 295.583 478.037, 296.973 478.082 C 298.363 478.127, 300.709 478.364, 302.186 478.608 C 304.184 478.938, 305.528 478.343, 307.436 476.286 C 309.895 473.634, 310.233 472.579, 310.418 467 C 310.463 465.621, 314.699 458.158, 319.863 450.362 L 329.225 436.223 332.598 437.155 C 334.804 437.764, 336.645 437.725, 337.920 437.043 C 339.065 436.430, 347.273 436, 357.824 436 C 384.266 436, 398.208 432.998, 417.499 423.152 C 430.065 416.738, 433.815 415.128, 430.025 417.773 C 428.664 418.723, 425.521 421.040, 423.041 422.922 C 407.012 435.086, 384.717 447.246, 366.895 453.544 C 361.178 455.564, 348.850 459.160, 339.500 461.535 C 330.150 463.910, 323.512 465.886, 324.750 465.927 C 325.988 465.967, 327 466.450, 327 467 C 327 469.615, 346.331 466.121, 363.511 460.400 C 400.191 448.185, 427.077 429.922, 456.842 397 C 462.063 391.225, 467.642 384.700, 469.240 382.500 C 471.193 379.810, 473.350 378.162, 475.822 377.469 C 480.775 376.080, 482.714 372.281, 480.578 368.150 C 478.823 364.758, 477.253 364, 471.975 364 C 469.430 364, 467.668 363.394, 466.807 362.221 C 466.088 361.243, 463.250 358.594, 460.500 356.335 C 454.437 351.354, 421.839 329.609, 413.500 324.983 C 401.166 318.141, 399 316.258, 399 312.375 C 399 309.780, 398.199 308.045, 395.971 305.817 C 393.327 303.173, 392.468 302.870, 389.221 303.432 C 387.174 303.786, 384.375 304.116, 383 304.165 C 381.625 304.213, 381.065 304.460, 381.756 304.712 C 382.447 304.964, 382.822 305.479, 382.589 305.855 C 382.357 306.232, 382.060 309.231, 381.929 312.520 C 381.631 320.029, 380.602 322.063, 373.335 329.500 C 360.349 342.790, 341.904 354.110, 326.259 358.391 C 313.648 361.841, 289.898 362.174, 278 359.067 C 268.002 356.456, 254.107 351.522, 247.500 348.238 C 236.505 342.773, 231.207 338.484, 230.024 334.088 C 228.808 329.574, 226.531 327.310, 222.491 326.602 C 216.874 325.618, 212.688 318.396, 204.419 295.422 C 199.986 283.103, 198.065 273.133, 197.341 258.672 C 196.236 236.617, 199.471 222.132, 210.669 199 L 217.204 185.500 221.470 185.840 C 225.279 186.144, 225.972 185.848, 227.944 183.078 C 229.553 180.818, 229.982 179.193, 229.520 177.093 C 228.918 174.351, 229.365 173.894, 238.694 167.711 C 259.885 153.665, 281.127 146.866, 304 146.809 C 331.049 146.741, 352.253 156.014, 376.010 178.302 C 381.237 183.205, 383 185.524, 383 187.495 C 383 193.374, 386.626 196.922, 392.682 196.968 C 396.175 196.995, 397.204 196.522, 398.932 194.096 C 400.069 192.498, 401.017 189.911, 401.037 188.346 C 401.071 185.746, 402.258 184.827, 414.787 177.710 C 422.329 173.426, 432.100 167.615, 436.500 164.798 C 456.970 151.689, 464.702 146.393, 467.160 143.794 C 469.463 141.358, 470.176 141.116, 472.475 141.991 C 479.227 144.558, 484 141.953, 484 135.701 C 484 131.431, 479.052 126.840, 475.267 127.597 C 472.607 128.129, 471.778 127.481, 465.341 119.839 C 453.871 106.222, 444.474 97.143, 420.166 76.196 C 416.562 73.090, 413.745 69.774, 413.370 68.196 C 412.348 63.903, 409.717 60, 407.843 60 C 406.894 60, 405.840 59.550, 405.500 59 C 405.160 58.450, 404.121 58.007, 403.191 58.015 C 401.722 58.029, 401.697 58.171, 403 59.096 C 404.154 59.916, 403.863 60.023, 401.737 59.559 C 399.838 59.144, 397.729 59.666, 394.995 61.228 C 389.673 64.266, 389.676 66.752, 395 66.035 C 395.987 65.902, 396.158 66.164, 395.500 66.800 C 394.950 67.332, 388.425 69.182, 381 70.910 C 373.575 72.638, 362.159 75.426, 355.630 77.105 C 349.102 78.783, 342.802 79.911, 341.630 79.610 C 340.459 79.309, 334.347 72.715, 328.048 64.958 C 321.750 57.200, 315.113 49.550, 313.298 47.957 C 310.637 45.620, 310 44.316, 310 41.200 C 310 38.183, 309.507 37.100, 307.750 36.252 C 304.263 34.570, 301.629 34.223, 299.191 35.125 M 273 45.073 C 271.625 45.546, 262.850 47.962, 253.500 50.442 C 244.150 52.922, 232.675 56.261, 228 57.861 C 215.728 62.063, 196.675 70.946, 185.861 77.508 C 174.920 84.146, 161.592 93.926, 162.394 94.728 C 162.701 95.034, 163.702 94.662, 164.620 93.900 C 166.109 92.664, 166.214 92.750, 165.594 94.703 C 164.981 96.635, 165.344 96.961, 168.700 97.494 C 179.430 99.199, 200.305 103.515, 214.864 107.039 C 223.864 109.218, 232.011 111, 232.969 111 C 234.074 111, 235.055 109.812, 235.653 107.750 C 236.433 105.061, 237.020 104.560, 239.048 104.848 C 240.397 105.039, 242.006 105.610, 242.625 106.116 C 243.938 107.191, 251.229 99.640, 261.670 86.393 C 265.427 81.627, 272.295 73.176, 276.934 67.614 C 286.652 55.960, 294 46.176, 294 44.890 C 294 42.971, 289.661 44.145, 287.130 46.750 C 281.154 52.898, 277.952 54.517, 272.500 54.145 C 265.632 53.677, 250.953 53.767, 248 54.295 C 244.610 54.902, 244.626 54.879, 248.500 53.562 C 250.700 52.814, 253.512 52.431, 254.750 52.710 C 255.996 52.990, 257 52.740, 257 52.149 C 257 51.054, 268.797 47, 271.983 47 C 272.958 47, 274.315 46.325, 275 45.500 C 275.685 44.675, 276.077 44.048, 275.872 44.106 C 275.668 44.165, 274.375 44.600, 273 45.073 M 299.845 48.707 C 298.073 48.979, 296.277 50.509, 294.444 53.307 C 292.934 55.613, 288.279 61.710, 284.099 66.856 C 272.261 81.430, 251.139 108.473, 251.395 108.728 C 251.521 108.854, 254.747 107.798, 258.562 106.381 C 273.609 100.792, 304.241 90.748, 318 86.893 C 325.975 84.658, 333.100 82.642, 333.834 82.414 C 334.710 82.141, 333.314 79.854, 329.764 75.749 C 326.792 72.312, 321.916 66.110, 318.930 61.967 C 315.943 57.824, 313.139 54.363, 312.699 54.276 C 312.258 54.188, 310.330 52.741, 308.414 51.058 C 306.498 49.376, 304.384 48.067, 303.715 48.150 C 303.047 48.232, 301.305 48.483, 299.845 48.707 M 414 62.435 C 414 64.893, 415.898 69, 417.034 69 C 417.630 69, 417.793 68.474, 417.395 67.830 C 416.919 67.061, 417.203 66.864, 418.223 67.255 C 419.373 67.697, 419.644 67.356, 419.273 65.936 C 418.998 64.884, 418.304 64.312, 417.732 64.666 C 417.095 65.059, 416.995 64.818, 417.474 64.043 C 417.930 63.305, 417.681 62.412, 416.878 61.904 C 414.883 60.640, 414 60.803, 414 62.435 M 377 77.164 C 356.304 81.497, 352.755 82.814, 352.407 86.296 C 352.065 89.707, 351.755 89.563, 377.500 97.984 C 403.015 106.330, 437.691 118.702, 453 124.920 C 465.444 129.975, 468 130.707, 468 129.218 C 468 128.058, 428.665 89.318, 420.224 82.166 C 413.052 76.087, 410.743 74.989, 409.471 77.048 C 408.683 78.321, 403.744 77.627, 398.750 75.540 C 394.049 73.576, 394.193 73.565, 377 77.164 M 214.557 80.335 C 212.218 82.045, 213.323 84, 216.629 84 C 218.637 84, 219.075 83.565, 218.820 81.828 C 218.418 79.097, 216.952 78.584, 214.557 80.335 M 449 81 C 449 82.111, 449.667 83, 450.500 83 C 451.333 83, 452 82.111, 452 81 C 452 79.889, 451.333 79, 450.500 79 C 449.667 79, 449 79.889, 449 81 M 322.160 91.512 C 312.003 94.136, 257.082 112.369, 253.188 114.409 C 251.240 115.430, 250.757 116.528, 250.608 120.269 C 250.370 126.245, 247.963 129, 242.982 129 C 239.432 129, 239.163 129.246, 236.701 134.750 C 233.854 141.115, 226 164.529, 226 166.652 C 226 168.584, 227.322 168.323, 230.575 165.750 C 232.140 164.512, 238.429 160.125, 244.552 156 C 250.675 151.875, 262.843 143.351, 271.592 137.058 C 280.342 130.764, 297.175 118.663, 309 110.165 C 333.781 92.357, 331.586 94.128, 332.455 91.250 C 333.274 88.538, 333.712 88.527, 322.160 91.512 M 350.588 95.370 C 351.841 98.634, 386.288 127.283, 415.277 149.170 L 432.058 161.840 438.556 157.670 C 442.131 155.377, 449.768 150.586, 455.528 147.025 C 466.521 140.229, 467.917 138.286, 463.750 135.591 C 460.570 133.533, 417.855 117.633, 383 105.531 C 366.775 99.898, 352.707 94.948, 351.739 94.533 C 350.386 93.953, 350.119 94.147, 350.588 95.370 M 325 105.476 C 320.325 108.965, 304.800 120.256, 290.500 130.565 C 276.200 140.875, 265.400 148.983, 266.500 148.584 C 306.572 134.039, 347.445 142.698, 377.225 172.041 C 381.501 176.255, 385 179.584, 385 179.439 C 385 179.294, 378.865 167.999, 371.367 154.338 C 363.869 140.677, 354.784 123.492, 351.178 116.149 C 347.572 108.806, 343.694 102.219, 342.561 101.511 C 341.427 100.803, 338.925 99.978, 337 99.678 C 333.880 99.190, 332.578 99.820, 325 105.476 M 354.066 110.500 C 356.382 114.900, 362.230 125.700, 367.062 134.500 C 371.893 143.300, 379.447 157.250, 383.847 165.500 L 391.847 180.500 395.348 180.289 C 397.274 180.172, 401.246 178.921, 404.175 177.509 C 412.147 173.663, 425.993 165.598, 425.997 164.798 C 425.999 164.412, 423.863 162.640, 421.250 160.861 C 414.387 156.186, 397.404 143.385, 391.008 138.067 C 371.898 122.176, 358.869 111.064, 354.678 107.082 L 349.856 102.500 354.066 110.500 M 164.015 105.750 C 164.028 107.246, 164.172 107.282, 165 106 C 165.533 105.175, 165.969 104.950, 165.969 105.500 C 165.969 106.837, 164.039 109.778, 164 108.500 C 163.983 107.950, 163.539 108.175, 163.013 109 C 162.331 110.069, 160.276 110.500, 155.856 110.500 L 149.655 110.500 146.876 116 C 135.441 138.633, 130.340 161.679, 132.436 181.246 L 133.149 187.904 140.324 182.602 C 148.761 176.368, 156.741 171.212, 174.500 160.523 C 206.055 141.529, 233.925 120.271, 230.841 117.548 C 230.654 117.382, 220.825 114.903, 209 112.038 C 173.597 103.462, 163.984 102.118, 164.015 105.750 M 140.787 113.250 C 139.439 115.037, 134.342 122.575, 129.461 130 C 110.696 158.543, 101.740 179.965, 94.482 213.672 C 92.567 222.566, 91 230.366, 91 231.006 C 91 231.645, 93.215 228.867, 95.923 224.834 C 100.739 217.661, 118.413 198.604, 124.632 193.879 L 127.764 191.500 126.794 184 C 124.264 164.449, 128.257 142.402, 137.977 122.250 C 141.227 115.513, 143.740 110, 143.562 110 C 143.383 110, 142.135 111.463, 140.787 113.250 M 102.607 113.582 C 101.412 116.695, 101.980 118, 104.531 118 C 107.477 118, 108.768 115.630, 106.989 113.487 C 105.380 111.548, 103.371 111.592, 102.607 113.582 M 227.628 130.750 C 217.796 138.956, 191.666 156.923, 173.500 167.970 C 161.397 175.329, 147.441 184.606, 138.822 191.019 C 133.809 194.750, 133.904 194.317, 136.137 203.242 L 137.073 206.984 145.871 202.565 C 157.581 196.684, 175.871 189.061, 190 184.174 C 207.098 178.259, 207.645 178.016, 206.072 177.044 C 204.966 176.361, 205.115 175.549, 206.867 172.715 C 209.061 169.165, 211.316 168.038, 216.271 168.014 C 219.508 167.998, 219.655 167.715, 224.114 153 C 225.863 147.225, 228.762 139.012, 230.555 134.750 C 232.348 130.488, 233.434 127, 232.968 127 C 232.503 127, 230.100 128.688, 227.628 130.750 M 145.362 155.500 C 144.569 157.564, 145.644 160, 147.346 160 C 149.393 160, 151.135 157.514, 150.410 155.627 C 149.626 153.584, 146.131 153.496, 145.362 155.500 M 187.103 191.548 C 166.699 198.993, 139 212.159, 139 214.413 C 139 217.592, 152.593 248, 154.014 248 C 154.411 248, 157.608 243.623, 161.118 238.273 C 173.462 219.460, 190.691 198.710, 200.361 191.011 C 205.498 186.921, 207.222 184.837, 205.250 185.100 C 204.838 185.155, 196.671 188.057, 187.103 191.548 M 197.778 200.799 C 185.098 214.857, 177.017 225.203, 166.434 240.929 L 157.746 253.837 163.787 262.169 C 170.307 271.161, 199.633 306.293, 201.061 306.822 C 201.539 306.998, 200.790 303.848, 199.396 299.822 C 187.194 264.553, 188.416 230.374, 202.946 200.500 C 205.621 195, 207.725 190.409, 207.620 190.299 C 207.516 190.188, 203.087 194.913, 197.778 200.799 M 120.445 205.882 C 113.457 211.984, 96.101 231.304, 93.587 235.780 C 93.085 236.674, 95.359 235.041, 98.641 232.152 C 104.373 227.107, 116.612 218.565, 126.478 212.724 C 131.149 209.959, 131.164 209.932, 130.471 205.724 C 129.263 198.394, 129.015 198.398, 120.445 205.882 M 130.500 217.405 C 129.400 218.121, 124.225 221.356, 119 224.596 C 113.775 227.836, 105.609 233.749, 100.853 237.736 L 92.207 244.986 93.353 248.743 C 93.984 250.809, 96.469 255.371, 98.876 258.881 C 103.398 265.474, 124.133 287.004, 129.594 290.777 L 132.689 292.915 135.952 284.207 C 137.747 279.418, 141.606 270.880, 144.528 265.232 L 149.840 254.965 144.069 242.732 C 140.895 236.005, 137.066 227.238, 135.562 223.250 C 134.057 219.262, 132.752 216.024, 132.663 216.052 C 132.573 216.081, 131.600 216.690, 130.500 217.405 M 150.741 266.179 C 146.940 272.666, 141.273 285.341, 139.489 291.348 C 138.005 296.347, 138.022 296.508, 140.216 298.163 C 145.015 301.783, 174.887 315.446, 175.865 314.468 C 176.516 313.817, 164.854 285.269, 158.957 273.078 L 153.414 261.618 150.741 266.179 M 166 274.334 C 166 274.772, 166.544 276.114, 167.209 277.316 C 167.875 278.517, 171.848 288.024, 176.039 298.443 C 182.999 315.744, 183.913 317.467, 186.580 318.312 C 188.186 318.821, 194.193 320.984, 199.929 323.119 C 205.665 325.254, 211.020 327, 211.830 327 C 212.639 327, 207.267 320.813, 199.893 313.250 C 186.177 299.184, 173.450 284.615, 168.678 277.518 C 167.205 275.328, 166 273.895, 166 274.334 M 395.500 302.117 C 396.600 302.657, 398.512 304.532, 399.750 306.285 C 401.659 308.988, 402 309.159, 402 307.410 C 402 304.830, 398.012 300.978, 395.436 301.068 C 393.561 301.133, 393.563 301.166, 395.500 302.117 M 134.588 309.867 C 129.346 332.010, 129.820 349.096, 136.285 371 C 137.664 375.675, 139.701 381.584, 140.810 384.131 C 142.744 388.572, 143 388.764, 147.060 388.820 C 151.106 388.876, 151.781 388.408, 162.405 378.189 C 168.517 372.310, 175.519 365.620, 177.966 363.322 C 182.146 359.396, 182.335 358.994, 181.089 356.667 C 179.889 354.423, 180.034 353.851, 182.632 350.595 C 184.209 348.618, 185.889 347, 186.363 347 C 187.677 347, 186.591 342.456, 182.821 332.183 L 179.401 322.865 167.429 318.130 C 160.844 315.525, 151.115 311.108, 145.807 308.314 L 136.158 303.235 134.588 309.867 M 376.892 311.512 C 374.682 316.506, 374.988 318.077, 378.015 317.286 C 379.718 316.840, 380.002 316.008, 379.856 311.880 C 379.761 309.196, 379.504 307, 379.285 307 C 379.066 307, 377.989 309.030, 376.892 311.512 M 447.412 314.369 C 446.661 316.325, 447.684 318, 449.629 318 C 450.610 318, 451.027 317.240, 450.820 315.828 C 450.432 313.191, 448.226 312.247, 447.412 314.369 M 389.697 322.144 C 388.878 323.440, 387.875 325.625, 387.468 327 C 386.637 329.811, 371.499 362.057, 363.942 377.115 C 361.224 382.532, 359 387.422, 359 387.982 C 359 388.570, 361.793 389, 365.615 389 L 372.231 389 378.865 382.149 C 382.514 378.382, 392.025 369.516, 400 362.447 C 407.975 355.379, 417.050 347.215, 420.167 344.306 L 425.833 339.017 423.167 337.163 C 415.348 331.725, 396.493 320.849, 394.029 320.356 C 391.775 319.905, 390.877 320.276, 389.697 322.144 M 186 324.533 C 186 325.444, 192.163 341.414, 193.549 344.094 C 194.895 346.698, 195.549 347.079, 197.727 346.532 C 200.834 345.753, 202.311 347.551, 200.833 350.313 C 199.201 353.361, 201.709 354.914, 213.132 357.926 C 218.834 359.430, 224.557 361.006, 225.849 361.429 C 228.689 362.358, 228.517 361.578, 223.408 350.368 C 220.332 343.619, 219.559 342.692, 215.500 340.897 C 211.695 339.214, 211 338.469, 211 336.076 C 211 333.093, 209.800 331.663, 206.500 330.713 C 205.400 330.397, 200.338 328.802, 195.250 327.170 C 190.162 325.538, 186 324.351, 186 324.533 M 382.024 325.955 C 379.832 330.051, 369.284 341.539, 363.918 345.675 C 351.313 355.390, 335.382 362.692, 320.662 365.503 C 301.488 369.165, 274.921 365.733, 259.099 357.551 C 253.268 354.536, 254.746 356.613, 261.219 360.530 C 281.924 373.059, 299.340 379.845, 322.791 384.521 C 330.101 385.979, 339.716 387.245, 344.158 387.335 L 352.233 387.500 368.082 356.049 C 376.799 338.750, 383.758 324.424, 383.546 324.213 C 383.335 324.002, 382.650 324.785, 382.024 325.955 M 429 342.794 C 429 343.231, 417.975 353.683, 404.500 366.020 C 391.025 378.358, 380 388.645, 380 388.880 C 380 390.021, 405.232 387.745, 417.092 385.535 C 437.730 381.689, 466 373.280, 466 370.987 C 466 370.534, 466.255 369.500, 466.566 368.689 C 467.123 367.237, 452.669 356.173, 437.095 346.130 C 430.689 342, 429 341.303, 429 342.794 M 143.200 344.200 C 141.233 346.167, 141.832 348, 144.441 348 C 147.441 348, 148.579 346.402, 146.964 344.456 C 145.495 342.687, 144.763 342.637, 143.200 344.200 M 226 343.557 C 226 344.742, 235.385 363.073, 236.413 363.895 C 237.011 364.374, 243.350 367.063, 250.500 369.870 C 269.479 377.324, 283.312 385.498, 319.796 410.819 C 327.221 415.972, 328.577 416.557, 332.711 416.393 L 337.331 416.209 343.206 405.189 L 349.082 394.168 342.291 393.479 C 323.534 391.576, 300.342 385.660, 283.421 378.463 C 268.328 372.043, 264.272 369.581, 245.424 355.398 C 230.988 344.536, 226 341.495, 226 343.557 M 198.206 361.661 C 195.509 362.237, 195.509 362.239, 201.001 376 C 207.032 391.110, 214.762 407, 216.082 407 C 216.749 407, 225.375 408.153, 235.251 409.563 C 245.127 410.973, 253.323 411.985, 253.464 411.813 C 253.606 411.641, 251.276 407.450, 248.286 402.500 C 245.297 397.550, 240.103 387.797, 236.744 380.826 L 230.637 368.153 219.608 364.930 C 208.504 361.685, 202.438 360.759, 198.206 361.661 M 185.300 364.288 C 184.860 364.997, 178.425 371.177, 171 378.022 C 155.287 392.507, 153.838 394.013, 154.292 395.375 C 154.777 396.830, 158.271 397.636, 178.500 400.957 C 202.308 404.865, 207.413 405.486, 206.774 404.399 C 204.692 400.859, 197.554 384.583, 194.492 376.395 C 192.456 370.953, 190.372 365.712, 189.860 364.750 C 188.767 362.694, 186.436 362.458, 185.300 364.288 M 240 373.167 C 240 374.425, 249.504 392.666, 255.316 402.563 C 261.546 413.171, 260.469 412.598, 279.500 415.436 C 302.813 418.912, 320.941 421.186, 322.143 420.786 C 323.125 420.458, 298.494 403.221, 280.551 391.677 C 269.984 384.879, 259.050 379.191, 248.482 374.993 C 239.888 371.579, 240 371.603, 240 373.167 M 459.257 379.461 C 441.193 387.871, 406.224 394.945, 382.289 395.032 L 373.500 395.064 358.750 409.413 C 347.329 420.524, 344 424.340, 344 426.322 C 344 427.730, 344.482 429.180, 345.072 429.544 C 347.479 431.032, 375.477 430.305, 384 428.533 C 409.649 423.203, 437.800 408.265, 455.584 390.549 C 468.976 377.209, 469.867 374.521, 459.257 379.461 M 93.667 381.667 C 92.859 382.475, 92.781 386.447, 93.558 387.225 C 93.865 387.531, 94.990 387.554, 96.058 387.275 C 98.433 386.654, 98.698 382.482, 96.418 381.607 C 94.460 380.855, 94.478 380.855, 93.667 381.667 M 353.659 397.250 C 352.897 398.488, 350.191 403.479, 347.648 408.341 L 343.023 417.183 354.511 406.468 C 360.830 400.575, 366 395.584, 366 395.376 C 366 395.169, 363.535 395, 360.523 395 C 355.921 395, 354.825 395.359, 353.659 397.250 M 403.336 402.567 C 402.502 404.739, 404.618 406.782, 406.133 405.267 C 407.413 403.987, 406.620 401, 405 401 C 404.415 401, 403.667 401.705, 403.336 402.567 M 474.364 411.493 C 474.018 412.396, 474.214 413.614, 474.800 414.200 C 476.324 415.724, 479.210 414.331, 478.812 412.265 C 478.369 409.963, 475.165 409.407, 474.364 411.493 M 219 413.794 C 219 415.011, 224.973 422.123, 232.937 430.388 C 244.496 442.386, 255.009 450.042, 270.307 457.602 C 287.782 466.238, 294.647 467.434, 288.296 460.735 C 282.539 454.663, 270.214 438.149, 264.472 428.817 C 261.320 423.693, 258.665 419.403, 258.572 419.285 C 258.479 419.166, 250.550 417.928, 240.951 416.533 C 231.353 415.138, 222.488 413.835, 221.250 413.637 C 220.012 413.439, 219 413.510, 219 413.794 M 267.588 422.603 C 272.247 429.991, 295.030 459.798, 296.428 460.334 C 297.293 460.666, 298.749 460.650, 299.664 460.299 C 300.783 459.869, 301.091 460.043, 300.605 460.830 C 299 463.427, 303.369 461.817, 306.249 458.750 C 310.628 454.086, 325 431.963, 325 429.885 C 325 428.923, 324.209 427.884, 323.243 427.577 C 320.989 426.862, 304.211 424.522, 287.233 422.555 C 279.936 421.710, 272.120 420.723, 269.864 420.362 L 265.761 419.706 267.588 422.603 M 369.688 467.646 C 368.272 469.061, 369.073 471, 371.073 471 C 372.471 471, 373.041 470.457, 372.823 469.333 C 372.466 467.492, 370.759 466.574, 369.688 467.646" stroke="none" fill="currentColor" fill-rule="evenodd"/></svg>